{"accessors" : [{"bufferView" : 0, "byteOffset" : 0, "componentType" : 5123, "count" : 11094, "type" : "SCALAR", "max" : [11093], "min" : [0]}, {"bufferView" : 1, "byteOffset" : 0, "componentType" : 5126, "count" : 11094, "type" : "VEC3", "max" : [8.109359741210938, 13.08810043334961, 60], "min" : [-8.109359741210938, -8.109359741210938, -24.863000869750977], "name" : "POSITION"}, {"bufferView" : 1, "byteOffset" : 12, "componentType" : 5126, "count" : 11094, "type" : "VEC3", "max" : [1.0000044107437134, 0.9996161460876465, 1.0000044107437134], "min" : [-1.0000044107437134, -0.9996161460876465, -1.0000044107437134], "name" : "NORMAL"}], "asset" : {"generator" : "Aspose.3D 22.1", "version" : "2.0"}, "buffers" : [{"uri" : "data:application/octet-stream;base64,", "byteLength" : 288452}], "bufferViews" : [{"buffer" : 0, "byteOffset" : 0, "byteLength" : 22188, "target" : 34963}, {"buffer" : 0, "byteOffset" : 22192, "byteLength" : 266256, "byteStride" : 24, "target" : 34962}], "meshes" : [{"primitives" : [{"attributes" : {"POSITION" : 1, "NORMAL" : 2}, "indices" : 0, "mode" : 4}], "name" : "OpenSCAD_Model"}], "nodes" : [{"mesh" : 0, "name" : "OpenSCAD_Model"}], "scene" : 0, "scenes" : [{"nodes" : [0]}]}